<svg width="31" height="31" viewBox="0 0 31 31" fill="none" xmlns="http://www.w3.org/2000/svg">
<path d="M5.68569 5.31128C5.08585 5.31128 4.59784 5.79929 4.59784 6.39919C4.59784 6.99903 5.08585 7.48705 5.68569 7.48705C6.28559 7.48705 6.77361 6.99903 6.77361 6.39919C6.77361 5.79929 6.28559 5.31128 5.68569 5.31128Z" fill="#939EB5"/>
<path d="M22.3268 28.9934C22.8275 27.786 22.2545 26.4014 21.0472 25.9008C19.8398 25.4002 18.4552 25.9731 17.9546 27.1805C17.454 28.3879 18.0269 29.7725 19.2343 30.2731C20.4416 30.7737 21.8262 30.2007 22.3268 28.9934Z" fill="#939EB5"/>
<path d="M15.8953 28.0805C15.8953 27.8364 15.9172 27.5976 15.957 27.3647H3.69007C2.69366 27.3647 1.88298 26.5541 1.88298 25.5576C1.88298 24.5611 2.69366 23.7505 3.69007 23.7505H12.1465C14.0692 23.7505 15.6335 22.1862 15.6335 20.2635C15.6335 18.3408 14.0693 16.7765 12.1465 16.7765H8.42263L7.30466 18.6456H12.1465C13.0386 18.6456 13.7644 19.3713 13.7644 20.2635C13.7644 21.1556 13.0386 21.8814 12.1465 21.8814H3.69007C1.66302 21.8814 0.0138499 23.5305 0.0138499 25.5576C0.0138499 27.5846 1.66302 29.2338 3.69007 29.2338H16.0562C15.9495 28.8586 15.8954 28.4705 15.8953 28.0805ZM30.9993 15.1442C30.992 14.964 30.9328 14.7897 30.8287 14.6423C30.7246 14.495 30.58 14.381 30.4126 14.314L20.4787 10.3404C20.3368 10.2837 20.1833 10.2626 20.0315 10.279C19.8796 10.2954 19.7341 10.3487 19.6077 10.4343C19.4812 10.5199 19.3776 10.6352 19.3061 10.7701C19.2345 10.905 19.197 11.0554 19.197 11.2081V23.9498C19.5034 23.8802 19.8167 23.845 20.131 23.8447C20.4456 23.845 20.7592 23.8803 21.066 23.95V20.6919L30.4809 16.0187C30.6425 15.9386 30.7774 15.8133 30.8694 15.6581C30.9614 15.5029 31.0065 15.3245 30.9993 15.1442ZM11.4614 6.2837C11.4614 3.11872 8.8957 0.552979 5.73072 0.552979C2.56574 0.552979 0 3.11872 0 6.2837V6.30747C0 7.45145 0.306089 8.57456 0.886516 9.56039L5.24749 16.967C5.44489 17.3022 5.92922 17.3039 6.12892 16.97L10.5523 9.5746C11.1473 8.57998 11.4614 7.44268 11.4614 6.2837ZM5.68567 9.35603C4.05519 9.35603 2.72868 8.02952 2.72868 6.39904C2.72868 4.76856 4.05519 3.44205 5.68567 3.44205C7.31615 3.44205 8.64266 4.76856 8.64266 6.39904C8.64266 8.02958 7.31615 9.35603 5.68567 9.35603Z" fill="#939EB5"/>
</svg>
