<svg width="28" height="27" viewBox="0 0 28 27" fill="none" xmlns="http://www.w3.org/2000/svg">
<path fillRule="evenodd" clipRule="evenodd" d="M9.00002 0.156006C11.647 0.156006 13.796 2.30501 13.796 4.95201C13.796 7.59901 11.647 9.74801 9.00002 9.74801C6.35302 9.74801 4.20402 7.59901 4.20402 4.95201C4.20402 2.30501 6.35302 0.156006 9.00002 0.156006ZM15.762 13.687C17.099 12.5941 18.7732 11.998 20.5 12C24.639 12 28 15.361 28 19.5C28 23.639 24.639 27 20.5 27C16.361 27 13 23.639 13 19.5C13 16.881 14.349 14.84 15.762 13.687ZM19.502 23.173C19.5177 23.4246 19.6277 23.6609 19.8102 23.8348C19.9926 24.0087 20.234 24.1073 20.486 24.1108C20.7381 24.1143 20.9821 24.0226 21.1694 23.8539C21.3566 23.6852 21.4733 23.452 21.496 23.201C21.571 23.182 21.644 23.16 21.714 23.135C22.638 22.808 23.306 22.097 23.306 20.86C23.306 19.649 22.477 19.026 21.314 18.687C20.911 18.569 20.467 18.483 20.079 18.353C19.9706 18.3195 19.8657 18.2753 19.766 18.221C19.735 18.203 19.694 18.193 19.694 18.152C19.694 17.847 19.933 17.734 20.187 17.699C20.7298 17.6366 21.2773 17.7676 21.733 18.069C21.8407 18.1442 21.9621 18.1974 22.0904 18.2257C22.2187 18.2539 22.3512 18.2566 22.4805 18.2337C22.6098 18.2107 22.7333 18.1624 22.844 18.0917C22.9547 18.021 23.0503 17.9292 23.1255 17.8215C23.2007 17.7138 23.2539 17.5924 23.2822 17.4641C23.3104 17.3359 23.3131 17.2033 23.2902 17.074C23.2672 16.9447 23.219 16.8212 23.1482 16.7105C23.0775 16.5998 22.9857 16.5042 22.878 16.429C22.4582 16.1454 21.9907 15.9398 21.498 15.822C21.4785 15.5727 21.3663 15.3397 21.1835 15.1689C21.0008 14.9981 20.7607 14.902 20.5106 14.8993C20.2605 14.8967 20.0185 14.9878 19.8322 15.1547C19.6459 15.3215 19.5288 15.5521 19.504 15.801C18.947 15.954 18.475 16.253 18.152 16.688C17.874 17.061 17.694 17.541 17.694 18.152C17.694 19.363 18.523 19.986 19.686 20.325C20.089 20.443 20.533 20.529 20.921 20.659C21.034 20.697 21.141 20.738 21.234 20.791C21.265 20.809 21.306 20.819 21.306 20.86C21.306 21.162 21.069 21.268 20.818 21.302C20.27 21.3614 19.7181 21.2316 19.254 20.934C19.1452 20.8605 19.0229 20.8092 18.8942 20.783C18.7655 20.7568 18.6329 20.7562 18.504 20.7812C18.2436 20.8317 18.0139 20.9836 17.8655 21.2035C17.7171 21.4234 17.6622 21.6932 17.7127 21.9536C17.7632 22.214 17.9152 22.4436 18.135 22.592C18.52 22.852 18.998 23.051 19.502 23.173ZM13.133 25.496C9.89702 25.5 5.48202 25.5 3.00702 25.5C2.23628 25.5001 1.49504 25.2037 0.936899 24.6722C0.378759 24.1407 0.0465142 23.4148 0.0090176 22.645L0.00801743 22.617C-0.0429686 20.2085 0.124382 17.8003 0.508017 15.422C0.763017 13.876 2.08602 11.932 3.43402 11.111L3.59702 11.013C3.76506 10.9125 3.95895 10.8637 4.15454 10.8726C4.35013 10.8815 4.53879 10.9477 4.69702 11.063C5.94102 11.967 7.47202 12.5 9.12602 12.5C10.78 12.5 12.311 11.967 13.555 11.063C13.7124 10.9487 13.8998 10.8828 14.0941 10.8734C14.2884 10.864 14.4813 10.9115 14.649 11.01L14.818 11.111C15.003 11.223 15.187 11.356 15.368 11.505C15.0663 11.6994 14.7758 11.9108 14.498 12.138C12.708 13.598 11 16.184 11 19.5C11 21.773 11.8 23.86 13.133 25.496Z" fill="#939EB5"/>
</svg>
