<svg width="24" height="25" viewBox="0 0 24 25" fill="none" xmlns="http://www.w3.org/2000/svg">
<path d="M5.25 9C7.04493 9 8.5 7.54493 8.5 5.75C8.5 3.95507 7.04493 2.5 5.25 2.5C3.45507 2.5 2 3.95507 2 5.75C2 7.54493 3.45507 9 5.25 9Z" fill="#939EB5"/>
<path d="M5 22.5C6.65685 22.5 8 21.1569 8 19.5C8 17.8431 6.65685 16.5 5 16.5C3.34315 16.5 2 17.8431 2 19.5C2 21.1569 3.34315 22.5 5 22.5Z" fill="#939EB5"/>
<path d="M19 22.5C20.6569 22.5 22 21.1569 22 19.5C22 17.8431 20.6569 16.5 19 16.5C17.3431 16.5 16 17.8431 16 19.5C16 21.1569 17.3431 22.5 19 22.5Z" fill="#939EB5"/>
<path d="M19.17 16.48C18.2 13.7 15.58 11.83 12.63 11.83C12.62 11.83 12.61 11.83 12.6 11.83L9.07 11.84C7.55 11.86 6.19 10.83 5.78 9.35V7.51C5.78 7.09 5.44 6.75 5.01 6.75C4.58 6.75 4.25 7.09 4.25 7.51V18.73C4.25 19.15 4.59 19.49 5.01 19.49C5.43 19.49 5.78 19.15 5.78 18.73V12.11C6.66 12.89 7.81 13.37 9.06 13.37C9.07 13.37 9.07 13.37 9.08 13.37L12.61 13.36C12.62 13.36 12.62 13.36 12.63 13.36C14.92 13.36 16.97 14.81 17.72 16.98C17.84 17.3 18.13 17.5 18.45 17.5C18.53 17.5 18.62 17.49 18.7 17.46C19.1 17.32 19.31 16.88 19.17 16.48Z" fill="#939EB5"/>
</svg>
