<svg width="22" height="22" viewBox="0 0 22 22" fill="none" xmlns="http://www.w3.org/2000/svg">
<path d="M15.4 1.83325H13.0167C10.0833 1.83325 8.25 3.66658 8.25 6.59992V10.3124H13.9792C14.355 10.3124 14.6667 10.6241 14.6667 10.9999C14.6667 11.3758 14.355 11.6874 13.9792 11.6874H8.25V15.3999C8.25 18.3333 10.0833 20.1666 13.0167 20.1666H15.3908C18.3242 20.1666 20.1575 18.3333 20.1575 15.3999V6.59992C20.1667 3.66658 18.3333 1.83325 15.4 1.83325Z" fill="#E52600"/>
<path d="M4.18001 10.3124L6.07751 8.41494C6.21501 8.27744 6.27917 8.10327 6.27917 7.9291C6.27917 7.75494 6.21501 7.5716 6.07751 7.44327C5.81167 7.17744 5.37167 7.17744 5.10584 7.44327L2.03501 10.5141C1.76917 10.7799 1.76917 11.2199 2.03501 11.4858L5.10584 14.5566C5.37167 14.8224 5.81167 14.8224 6.07751 14.5566C6.34334 14.2908 6.34334 13.8508 6.07751 13.5849L4.18001 11.6874H8.25001V10.3124H4.18001Z" fill="#E52600"/>
</svg>
