<svg width="20" height="21" viewBox="0 0 20 21" fill="none" xmlns="http://www.w3.org/2000/svg">
<path d="M15.29 2.64004L15.22 6.43004C15.21 6.95004 15.54 7.64004 15.96 7.95004L18.44 9.83004C20.03 11.03 19.77 12.5 17.87 13.1L14.64 14.11C14.1 14.28 13.53 14.87 13.39 15.42L12.62 18.36C12.01 20.68 10.49 20.91 9.23003 18.87L7.47003 16.02C7.15003 15.5 6.39003 15.11 5.79003 15.14L2.45003 15.31C0.0600262 15.43 -0.619973 14.05 0.940027 12.23L2.92003 9.93004C3.29003 9.50004 3.46003 8.70004 3.29003 8.16004L2.27003 4.92004C1.68003 3.02004 2.74003 1.97004 4.63003 2.59004L7.58003 3.56004C8.08003 3.72004 8.83003 3.61004 9.25003 3.30004L12.33 1.08004C14 -0.109956 15.33 0.590044 15.29 2.64004Z" fill="#939EB5"/>
</svg>
