<svg width="24" height="25" viewBox="0 0 24 25" fill="none" xmlns="http://www.w3.org/2000/svg">
<path d="M12.75 16.4201H13.4C14.05 16.4201 14.59 15.8401 14.59 15.1401C14.59 14.2701 14.28 14.1001 13.77 13.9201L12.76 13.5701V16.4201H12.75Z" fill="#939EB5"/>
<path d="M11.97 2.39992C6.45001 2.41992 1.98001 6.90992 2.00001 12.4299C2.02001 17.9499 6.51001 22.4199 12.03 22.3999C17.55 22.3799 22.02 17.8899 22 12.3699C21.98 6.84992 17.49 2.38992 11.97 2.39992ZM14.26 12.4999C15.04 12.7699 16.09 13.3499 16.09 15.1399C16.09 16.6799 14.88 17.9199 13.4 17.9199H12.75V18.4999C12.75 18.9099 12.41 19.2499 12 19.2499C11.59 19.2499 11.25 18.9099 11.25 18.4999V17.9199H10.89C9.25001 17.9199 7.92001 16.5399 7.92001 14.8399C7.92001 14.4299 8.26001 14.0899 8.67001 14.0899C9.08001 14.0899 9.42001 14.4299 9.42001 14.8399C9.42001 15.7099 10.08 16.4199 10.89 16.4199H11.25V13.0399L9.74001 12.4999C8.96001 12.2299 7.91001 11.6499 7.91001 9.85992C7.91001 8.31992 9.12001 7.07992 10.6 7.07992H11.25V6.49992C11.25 6.08992 11.59 5.74992 12 5.74992C12.41 5.74992 12.75 6.08992 12.75 6.49992V7.07992H13.11C14.75 7.07992 16.08 8.45992 16.08 10.1599C16.08 10.5699 15.74 10.9099 15.33 10.9099C14.92 10.9099 14.58 10.5699 14.58 10.1599C14.58 9.28992 13.92 8.57992 13.11 8.57992H12.75V11.9599L14.26 12.4999Z" fill="#939EB5"/>
<path d="M9.41998 9.87008C9.41998 10.7401 9.72998 10.9101 10.24 11.0901L11.25 11.4401V8.58008H10.6C9.94998 8.58008 9.41998 9.16008 9.41998 9.87008Z" fill="#939EB5"/>
</svg>
